<svg preserveAspectRatio="none" width="100%" height="100%" overflow="visible" style="display: block;" viewBox="0 0 19 16" fill="none" xmlns="http://www.w3.org/2000/svg">
<path id="Icon" d="M14.809 14.3333C15.8607 14.3333 16.714 13.4808 16.714 12.4283V8.61917L17.6665 7.66667L16.714 6.71417V2.905C16.714 1.8525 15.8615 1 14.809 1M3.8575 1C2.805 1 1.9525 1.8525 1.9525 2.905V6.71417L1 7.66667L1.9525 8.61917V12.4283C1.9525 13.4808 2.805 14.3333 3.8575 14.3333M5.58333 7.66667L7.61193 9.69526C7.77694 9.86027 7.85944 9.94277 7.95458 9.97368C8.03826 10.0009 8.12841 10.0009 8.21209 9.97368C8.30723 9.94277 8.38973 9.86027 8.55474 9.69526L13.0833 5.16667" stroke="var(--stroke-0, #007900)" stroke-width="2" stroke-linecap="round" stroke-linejoin="round"/>
</svg>
