<svg preserveAspectRatio="none" width="100%" height="100%" overflow="visible" style="display: block;" viewBox="0 0 22 18" fill="none" xmlns="http://www.w3.org/2000/svg">
<path id="Icon" d="M17.5708 17C18.8328 17 19.8568 15.977 19.8568 14.714V10.143L20.9998 9L19.8568 7.857V3.286C19.8568 2.023 18.8338 1 17.5708 1M4.429 1C3.166 1 2.143 2.023 2.143 3.286V7.857L1 9L2.143 10.143V14.714C2.143 15.977 3.166 17 4.429 17M6.5 9L8.93431 11.4343C9.13232 11.6323 9.23133 11.7313 9.34549 11.7684C9.44591 11.8011 9.55409 11.8011 9.65451 11.7684C9.76867 11.7313 9.86768 11.6323 10.0657 11.4343L15.5 6" stroke="var(--stroke-0, #111111)" stroke-width="2" stroke-linecap="round" stroke-linejoin="round"/>
</svg>
