<svg preserveAspectRatio="none" width="100%" height="100%" overflow="visible" style="display: block;" viewBox="0 0 19 19" fill="none" xmlns="http://www.w3.org/2000/svg">
<path id="Icon" d="M8.50003 1L11 3.5M11 3.5L8.50003 6M11 3.5H5.00003C3.5999 3.5 2.89983 3.5 2.36505 3.77248C1.89465 4.01217 1.5122 4.39462 1.27251 4.86502C1.00003 5.3998 1.00003 6.09987 1.00003 7.5V12.25C1.00003 12.637 1.00003 12.8305 1.02142 12.993C1.16911 14.1148 2.05188 14.9976 3.17371 15.1453C3.33617 15.1667 3.52968 15.1667 3.9167 15.1667M7.6667 15.1667H13.6667C15.0668 15.1667 15.7669 15.1667 16.3017 14.8942C16.7721 14.6545 17.1545 14.272 17.3942 13.8016C17.6667 13.2669 17.6667 12.5668 17.6667 11.1667V6.41667C17.6667 6.02965 17.6667 5.83614 17.6453 5.67368C17.4976 4.55185 16.6148 3.66908 15.493 3.52139C15.3306 3.5 15.137 3.5 14.75 3.5M7.6667 15.1667L10.1667 17.6667M7.6667 15.1667L10.1667 12.6667" stroke="var(--stroke-0, #0050A5)" stroke-width="2" stroke-linecap="round" stroke-linejoin="round"/>
</svg>
