<svg preserveAspectRatio="none" width="100%" height="100%" overflow="visible" style="display: block;" viewBox="0 0 22 22" fill="none" xmlns="http://www.w3.org/2000/svg">
<path id="Icon" d="M10 1L13 4M13 4L10 7M13 4H5.80002C4.11987 4 3.27979 4 2.63805 4.32698C2.07357 4.6146 1.61462 5.07354 1.327 5.63803C1.00002 6.27976 1.00002 7.11984 1.00002 8.8V14.5C1.00002 14.9644 1.00002 15.1966 1.02569 15.3916C1.20292 16.7378 2.26224 17.7971 3.60845 17.9743C3.80339 18 4.0356 18 4.50002 18M9.00002 18H16.2C17.8802 18 18.7203 18 19.362 17.673C19.9265 17.3854 20.3854 16.9265 20.673 16.362C21 15.7202 21 14.8802 21 13.2V7.5C21 7.03558 21 6.80337 20.9744 6.60842C20.7971 5.26222 19.7378 4.2029 18.3916 4.02567C18.1967 4 17.9644 4 17.5 4M9.00002 18L12 21M9.00002 18L12 15" stroke="var(--stroke-0, #111111)" stroke-width="2" stroke-linecap="round" stroke-linejoin="round"/>
</svg>
