<svg preserveAspectRatio="none" width="100%" height="100%" overflow="visible" style="display: block;" viewBox="0 0 37 37" fill="none" xmlns="http://www.w3.org/2000/svg">
<path id="Icon" d="M34.8333 18.1667C34.8333 27.3714 27.3714 34.8333 18.1667 34.8333M34.8333 18.1667C34.8333 8.96192 27.3714 1.5 18.1667 1.5M34.8333 18.1667H31.5M18.1667 34.8333C8.96192 34.8333 1.5 27.3714 1.5 18.1667M18.1667 34.8333V31.5M1.5 18.1667C1.5 8.96192 8.96192 1.5 18.1667 1.5M1.5 18.1667H4.83333M18.1667 1.5V4.83333M29.9518 29.9518L27.5948 27.5948M8.73858 8.73858L6.38155 6.38155M27.5948 8.73858L29.9518 6.38155M6.38155 29.9518L8.73858 27.5948M11.5 18.1667L15.6667 15.6667L18.1667 11.5L20.6667 15.6667L24.8333 18.1667L20.6667 20.6667L18.1667 24.8333L15.6667 20.6667L11.5 18.1667Z" stroke="var(--stroke-0, #E30027)" stroke-width="3" stroke-linecap="round" stroke-linejoin="round"/>
</svg>
