<svg preserveAspectRatio="none" width="100%" height="100%" overflow="visible" style="display: block;" viewBox="0 0 20 17" fill="none" xmlns="http://www.w3.org/2000/svg">
<path id="Icon" d="M9.55283 6.42011V9.75345M9.55283 13.0868H9.56116M8.39893 2.16322L1.54486 14.0021C1.16468 14.6587 0.974599 14.9871 1.00269 15.2565C1.0272 15.4916 1.15034 15.7051 1.34147 15.8441C1.5606 16.0034 1.93999 16.0034 2.69876 16.0034H16.4069C17.1657 16.0034 17.5451 16.0034 17.7642 15.8441C17.9553 15.7051 18.0785 15.4916 18.103 15.2565C18.1311 14.9871 17.941 14.6587 17.5608 14.0021L10.7067 2.16321C10.3279 1.50891 10.1385 1.18176 9.89141 1.07188C9.67586 0.976039 9.42979 0.976039 9.21425 1.07188C8.96714 1.18176 8.77773 1.50891 8.39893 2.16322Z" stroke="var(--stroke-0, #0050A5)" stroke-width="2" stroke-linecap="round" stroke-linejoin="round"/>
</svg>
