<svg preserveAspectRatio="none" width="100%" height="100%" overflow="visible" style="display: block;" viewBox="0 0 37 37" fill="none" xmlns="http://www.w3.org/2000/svg">
<g id="Icon">
<path d="M18.1667 23.1667C20.9281 23.1667 23.1667 20.9281 23.1667 18.1667C23.1667 15.4052 20.9281 13.1667 18.1667 13.1667C15.4052 13.1667 13.1667 15.4052 13.1667 18.1667C13.1667 20.9281 15.4052 23.1667 18.1667 23.1667Z" stroke="var(--stroke-0, #E30027)" stroke-width="3" stroke-linecap="round" stroke-linejoin="round"/>
<path d="M29.3788 22.7121C29.1771 23.1691 29.1169 23.6761 29.2061 24.1676C29.2952 24.6591 29.5295 25.1126 29.8788 25.4697L29.9697 25.5606C30.2514 25.842 30.475 26.1762 30.6275 26.5441C30.78 26.912 30.8584 27.3063 30.8584 27.7045C30.8584 28.1028 30.78 28.4971 30.6275 28.865C30.475 29.2328 30.2514 29.567 29.9697 29.8485C29.6883 30.1302 29.3541 30.3537 28.9862 30.5062C28.6183 30.6587 28.224 30.7372 27.8258 30.7372C27.4275 30.7372 27.0332 30.6587 26.6653 30.5062C26.2975 30.3537 25.9633 30.1302 25.6818 29.8485L25.5909 29.7576C25.2338 29.4083 24.7803 29.174 24.2888 29.0848C23.7973 28.9957 23.2903 29.0559 22.8333 29.2576C22.3852 29.4496 22.003 29.7686 21.7338 30.1751C21.4646 30.5816 21.3201 31.0579 21.3182 31.5455V31.803C21.3182 32.6067 20.9989 33.3775 20.4306 33.9458C19.8623 34.5141 19.0916 34.8333 18.2879 34.8333C17.4842 34.8333 16.7134 34.5141 16.1451 33.9458C15.5768 33.3775 15.2576 32.6067 15.2576 31.803V31.6667C15.2458 31.1652 15.0835 30.6788 14.7917 30.2708C14.4999 29.8627 14.092 29.5519 13.6212 29.3788C13.1642 29.1771 12.6573 29.1169 12.1658 29.2061C11.6743 29.2952 11.2207 29.5295 10.8636 29.8788L10.7727 29.9697C10.4913 30.2514 10.1571 30.475 9.78921 30.6275C9.42134 30.78 9.02702 30.8584 8.62879 30.8584C8.23056 30.8584 7.83624 30.78 7.46836 30.6275C7.10049 30.475 6.76628 30.2514 6.48485 29.9697C6.2031 29.6883 5.97959 29.3541 5.82709 28.9862C5.67459 28.6183 5.5961 28.224 5.5961 27.8258C5.5961 27.4275 5.67459 27.0332 5.82709 26.6653C5.97959 26.2975 6.2031 25.9633 6.48485 25.6818L6.57576 25.5909C6.92506 25.2338 7.15937 24.7803 7.24849 24.2888C7.33761 23.7973 7.27745 23.2903 7.07576 22.8333C6.88369 22.3852 6.56478 22.003 6.15828 21.7338C5.75178 21.4646 5.27543 21.3201 4.78788 21.3182H4.5303C3.72662 21.3182 2.95585 20.9989 2.38756 20.4306C1.81926 19.8623 1.5 19.0916 1.5 18.2879C1.5 17.4842 1.81926 16.7134 2.38756 16.1451C2.95585 15.5768 3.72662 15.2576 4.5303 15.2576H4.66667C5.16817 15.2458 5.65455 15.0835 6.06257 14.7917C6.4706 14.4999 6.78139 14.092 6.95455 13.6212C7.15623 13.1642 7.2164 12.6573 7.12728 12.1658C7.03816 11.6743 6.80384 11.2207 6.45455 10.8636L6.36364 10.7727C6.08189 10.4913 5.85838 10.1571 5.70588 9.78921C5.55338 9.42134 5.47489 9.02702 5.47489 8.62879C5.47489 8.23056 5.55338 7.83624 5.70588 7.46836C5.85838 7.10049 6.08189 6.76628 6.36364 6.48485C6.64507 6.2031 6.97928 5.97959 7.34715 5.82709C7.71502 5.67459 8.10935 5.5961 8.50758 5.5961C8.9058 5.5961 9.30013 5.67459 9.668 5.82709C10.0359 5.97959 10.3701 6.2031 10.6515 6.48485L10.7424 6.57576C11.0995 6.92506 11.5531 7.15937 12.0446 7.24849C12.5361 7.33761 13.043 7.27745 13.5 7.07576H13.6212C14.0693 6.88369 14.4515 6.56478 14.7207 6.15828C14.99 5.75178 15.1344 5.27543 15.1364 4.78788V4.5303C15.1364 3.72662 15.4556 2.95585 16.0239 2.38756C16.5922 1.81926 17.363 1.5 18.1667 1.5C18.9704 1.5 19.7411 1.81926 20.3094 2.38756C20.8777 2.95585 21.197 3.72662 21.197 4.5303V4.66667C21.1989 5.15422 21.3434 5.63057 21.6126 6.03707C21.8818 6.44357 22.264 6.76248 22.7121 6.95455C23.1691 7.15623 23.6761 7.2164 24.1676 7.12728C24.6591 7.03816 25.1126 6.80384 25.4697 6.45455L25.5606 6.36364C25.842 6.08189 26.1762 5.85838 26.5441 5.70588C26.912 5.55338 27.3063 5.47489 27.7045 5.47489C28.1028 5.47489 28.4971 5.55338 28.865 5.70588C29.2328 5.85838 29.567 6.08189 29.8485 6.36364C30.1302 6.64507 30.3537 6.97928 30.5062 7.34715C30.6587 7.71502 30.7372 8.10935 30.7372 8.50758C30.7372 8.9058 30.6587 9.30013 30.5062 9.668C30.3537 10.0359 30.1302 10.3701 29.8485 10.6515L29.7576 10.7424C29.4083 11.0995 29.174 11.5531 29.0848 12.0446C28.9957 12.5361 29.0559 13.043 29.2576 13.5V13.6212C29.4496 14.0693 29.7686 14.4515 30.1751 14.7207C30.5816 14.99 31.0579 15.1344 31.5455 15.1364H31.803C32.6067 15.1364 33.3775 15.4556 33.9458 16.0239C34.5141 16.5922 34.8333 17.363 34.8333 18.1667C34.8333 18.9704 34.5141 19.7411 33.9458 20.3094C33.3775 20.8777 32.6067 21.197 31.803 21.197H31.6667C31.1791 21.1989 30.7028 21.3434 30.2963 21.6126C29.8898 21.8818 29.5709 22.264 29.3788 22.7121Z" stroke="var(--stroke-0, #E30027)" stroke-width="3" stroke-linecap="round" stroke-linejoin="round"/>
</g>
</svg>
