<svg preserveAspectRatio="none" width="100%" height="100%" overflow="visible" style="display: block;" viewBox="0 0 18 19" fill="none" xmlns="http://www.w3.org/2000/svg">
<path id="Icon" d="M4.69006 8.65788L1.51944 2.98416C1.15487 2.33177 0.972582 2.00557 1.0033 1.7385C1.0301 1.50549 1.15386 1.29456 1.34419 1.1575C1.56234 1.0004 1.93602 1.0004 2.68336 1.0004H4.54572C4.82346 1.0004 4.96234 1.0004 5.0869 1.04051C5.19712 1.076 5.29874 1.13408 5.38527 1.21103C5.48305 1.298 5.55354 1.41765 5.69452 1.65696L8.7442 6.83373L11.7939 1.65696C11.9348 1.41765 12.0053 1.298 12.1031 1.21103C12.1897 1.13408 12.2913 1.076 12.4015 1.04051C12.5261 1.0004 12.6649 1.0004 12.9427 1.0004H14.805C15.5524 1.0004 15.926 1.0004 16.1442 1.1575C16.3345 1.29456 16.4583 1.50549 16.4851 1.7385C16.5158 2.00557 16.3335 2.33177 15.969 2.98416L12.7983 8.65788M7.4942 11.0004L8.7442 10.1671V14.3337M7.70253 14.3337H9.78586M12.5744 8.42023C14.6897 10.5356 14.6897 13.9652 12.5744 16.0806C10.459 18.1959 7.02938 18.1959 4.91403 16.0806C2.7987 13.9652 2.7987 10.5356 4.91403 8.42023C7.02937 6.3049 10.459 6.3049 12.5744 8.42023Z" stroke="var(--stroke-0, #0050A5)" stroke-width="2" stroke-linecap="round" stroke-linejoin="round"/>
</svg>
