<svg preserveAspectRatio="none" width="100%" height="100%" overflow="visible" style="display: block;" viewBox="0 0 36 36" fill="none" xmlns="http://www.w3.org/2000/svg">
<path id="Icon" d="M13.1667 4V1.5M6.6011 6.6011L4.83333 4.83333M6.6011 19.8333L4.83333 21.6011M19.8333 6.6011L21.6011 4.83333M4 13.1667H1.5M24.6075 25.1493L20.4546 32.8617C19.9801 33.7428 19.7429 34.1833 19.4575 34.2948C19.2098 34.3915 18.9309 34.3642 18.7066 34.2213C18.4482 34.0566 18.3009 33.5784 18.0064 32.6221L12.242 13.9087C12.0013 13.1275 11.881 12.7369 11.9778 12.4731C12.0622 12.2433 12.2433 12.0622 12.4731 11.9778C12.7369 11.881 13.1275 12.0013 13.9087 12.242L32.622 18.0064C33.5784 18.301 34.0566 18.4483 34.2212 18.7067C34.3641 18.9309 34.3914 19.2099 34.2947 19.4576C34.1833 19.743 33.7427 19.9802 32.8617 20.4546L25.1493 24.6075C25.0184 24.678 24.9529 24.7132 24.8956 24.7585C24.8447 24.7987 24.7987 24.8447 24.7585 24.8956C24.7132 24.9529 24.678 25.0184 24.6075 25.1493Z" stroke="var(--stroke-0, #E30027)" stroke-width="3" stroke-linecap="round" stroke-linejoin="round"/>
</svg>
