<svg preserveAspectRatio="none" width="100%" height="100%" overflow="visible" style="display: block;" viewBox="0 0 16 17" fill="none" xmlns="http://www.w3.org/2000/svg">
<path id="Icon" d="M14.3334 16C14.3334 14.837 14.3334 14.2555 14.1899 13.7824C13.8667 12.717 13.0331 11.8834 11.9677 11.5602C11.4946 11.4167 10.9131 11.4167 9.7501 11.4167H5.58344C4.42047 11.4167 3.83899 11.4167 3.36582 11.5602C2.30049 11.8834 1.46681 12.717 1.14364 13.7824C1.00011 14.2555 1.00011 14.837 1.00011 16M11.4168 4.75C11.4168 6.82107 9.73784 8.5 7.66677 8.5C5.59571 8.5 3.91677 6.82107 3.91677 4.75C3.91677 2.67893 5.59571 1 7.66677 1C9.73784 1 11.4168 2.67893 11.4168 4.75Z" stroke="var(--stroke-0, #0050A5)" stroke-width="2" stroke-linecap="round" stroke-linejoin="round"/>
</svg>
